PathFileType	4	(X/Y/Z)	s02c0201.trc
DataRate	CameraRate	NumFrames	NumMarkers	Units	OrigDataRate	OrigDataStartFrame	OrigNumFrames
200	200	6	51	mm	200	250	2000
Frame#	Time	racr			lacr			c7			jug			rlel			rdr			llel			ldr			s2			lic			ric			lasi			rasi			rpsi			lpsi			rgt			lgt			rth1			rth2			rth3			rth4			rlfc			rmfc			rsh1			rsh2			rsh3			rsh4			rlmal			rmmal			rcal			rtoe			rmt5			rmt1			lth1			lth2			lth4			lth3			llfc			lmfc			lsh1			lsh2			lsh3			lsh4			llmal			lmmal			lcal			ltoe			lmt5			SBIKE			LBIKE			RBIKE			
		X1	Y1	Z1	X2	Y2	Z2	X3	Y3	Z3	X4	Y4	Z4	X5	Y5	Z5	X6	Y6	Z6	X7	Y7	Z7	X8	Y8	Z8	X9	Y9	Z9	X10	Y10	Z10	X11	Y11	Z11	X12	Y12	Z12	X13	Y13	Z13	X14	Y14	Z14	X15	Y15	Z15	X16	Y16	Z16	X17	Y17	Z17	X18	Y18	Z18	X19	Y19	Z19	X20	Y20	Z20	X21	Y21	Z21	X22	Y22	Z22	X23	Y23	Z23	X24	Y24	Z24	X25	Y25	Z25	X26	Y26	Z26	X27	Y27	Z27	X28	Y28	Z28	X29	Y29	Z29	X30	Y30	Z30	X31	Y31	Z31	X32	Y32	Z32	X33	Y33	Z33	X34	Y34	Z34	X35	Y35	Z35	X36	Y36	Z36	X37	Y37	Z37	X38	Y38	Z38	X39	Y39	Z39	X40	Y40	Z40	X41	Y41	Z41	X42	Y42	Z42	X43	Y43	Z43	X44	Y44	Z44	X45	Y45	Z45	X46	Y46	Z46	X47	Y47	Z47	X48	Y48	Z48	X49	Y49	Z49	X50	Y50	Z50	X51	Y51	Z51	
250	1.2500	490.219377	1289.020200	-137.124378	514.605024	1302.873079	-472.244629	505.105394	1319.455656	-311.551148	456.207264	1189.489603	-314.201426	543.877571	1034.371152	-54.497887	715.495566	896.595749	-117.128526	522.941062	1027.747431	-572.626634	706.080014	892.359142	-518.524714	0.265973	1105.955725	-327.673431	147.322676	1099.434850	-465.379525	128.150136	1115.796117	-186.940269	187.586845	1062.580738	-441.631315	180.736693	1085.046772	-209.473442	21.533583	1151.314107	-286.605136	30.444380	1168.603262	-369.677191	109.623231	1045.110670	-141.924877	83.453406	1005.702880	-499.854532	194.632478	1022.321129	-141.113436	281.704996	1013.044092	-148.346219	353.059079	971.057766	-125.895870	292.090533	1037.354080	-176.410028	475.387689	883.408901	-159.276383	465.282616	865.836254	-271.249108	451.751027	773.781419	-143.482250	422.298581	691.131274	-163.361613	363.311121	629.216954	-155.224344	432.018401	687.827343	-201.541667	289.280597	534.333170	-157.006165	294.681574	551.772541	-239.053375	215.289007	481.153026	-197.144497	500.908983	489.237198	-194.477590	393.942421	468.603637	-134.321564	419.138776	482.437961	-244.314287	183.145635	901.778086	-517.397914	247.122113	842.421532	-515.149901	275.188837	860.060330	-498.532746	271.016397	756.519264	-514.065416	321.051485	668.818278	-487.843744	322.062417	640.899559	-384.168691	280.212117	573.233408	-507.918524	259.964060	490.708920	-490.776859	199.160760	424.054571	-493.375811	277.900011	485.150261	-454.480007	135.690086	337.741912	-477.006720	153.232990	328.060880	-399.996627	59.834477	322.707224	-433.596616	294.301196	158.135293	-445.753639	190.687790	194.588146	-502.788249	-165.245455	857.944124	-315.822799	33.206897	82.319888	-515.571271	32.925118	82.237956	-115.308946	
251	1.2550	491.331639	1287.272420	-136.326185	516.657691	1300.510128	-471.379826	506.662429	1317.234734	-310.502234	456.996058	1187.305076	-313.165025	543.002940	1033.003258	-52.668105	715.422678	896.903074	-116.729215	521.920418	1025.977663	-573.583208	705.630916	892.271576	-518.920152	0.538885	1106.391231	-328.090794	147.904567	1099.324466	-465.515930	128.136559	1115.839767	-186.931735	187.941786	1062.348266	-441.637351	180.868743	1085.150458	-209.467546	21.925421	1151.851447	-287.019308	31.237158	1169.287980	-370.057102	109.538607	1045.278894	-142.218155	83.709445	1005.867942	-500.116995	194.659126	1022.311418	-141.305685	281.741489	1012.869661	-148.772515	352.850190	970.749793	-126.012356	292.113259	1037.137326	-176.655341	474.990415	882.594839	-159.590101	464.574615	865.053738	-271.357614	451.383111	772.934639	-143.693261	422.099489	690.126119	-163.571262	363.537597	628.177521	-155.188042	431.925187	686.809555	-201.640639	289.337065	533.305685	-157.126307	294.680147	550.849590	-239.301165	215.520016	479.793256	-197.243790	501.116357	489.102443	-194.421131	394.258055	467.930232	-134.255765	419.391454	482.052898	-244.342835	183.440167	901.918864	-517.571036	247.474121	842.637774	-515.283082	275.564632	860.306661	-498.644110	271.486845	756.748662	-514.157739	321.532035	669.120162	-487.762214	322.460841	641.386295	-384.031010	280.628015	573.609385	-507.815423	260.182488	491.149106	-490.714125	199.274160	424.680321	-493.244793	278.115381	485.526485	-454.376490	135.605633	338.321308	-477.026362	153.164536	328.634602	-399.982916	59.747214	323.407477	-433.608141	293.836771	158.277587	-445.813631	190.295796	195.011891	-502.792745	-165.187801	857.967439	-315.697582	33.202274	82.303340	-515.587756	32.923952	82.231974	-115.305262	
252	1.2600	492.443142	1285.536813	-135.517405	518.678040	1298.216758	-470.382245	507.978541	1314.666373	-309.397594	457.717197	1185.083720	-312.271524	541.584885	1032.201813	-51.009963	715.595689	897.394230	-116.455918	520.937870	1024.487915	-574.540916	705.160340	892.217679	-519.369759	0.819399	1106.815879	-328.463271	148.514508	1099.185873	-465.624303	128.102236	1115.896043	-186.902046	188.264558	1062.172703	-441.670002	181.012721	1085.272414	-209.451989	22.306008	1152.536274	-287.430269	31.971465	1169.808081	-370.341919	109.465824	1045.479809	-142.455332	83.984748	1006.006249	-500.345075	194.676492	1022.342739	-141.510781	281.675950	1012.728341	-149.077284	352.696948	970.450397	-126.250398	292.134638	1036.977917	-176.918604	474.484850	881.920513	-159.745978	464.014743	864.223852	-271.548111	451.088972	772.213850	-143.917160	421.950376	689.364164	-163.783954	363.232636	627.264735	-155.637962	431.744083	686.113142	-201.906066	289.396679	532.397743	-157.264285	294.723852	549.632946	-239.393134	215.687375	478.598794	-197.196352	501.357181	488.857283	-194.360029	394.523257	467.522166	-134.132520	419.669363	481.669482	-244.334663	183.803340	902.054927	-517.782699	247.900133	842.802693	-515.400690	275.923924	860.544614	-498.720525	272.006624	756.966137	-514.237982	322.079533	669.421855	-487.681678	322.861099	641.867353	-383.834761	281.032252	574.065703	-507.710015	260.419276	491.617477	-490.605214	199.341287	425.256903	-493.162152	278.341646	485.962968	-454.259866	135.471859	338.978676	-477.060829	153.086192	329.251503	-399.995355	59.615078	324.133992	-433.639564	293.356263	158.437318	-445.818994	189.928976	195.393165	-502.740897	-165.130410	858.062361	-315.511917	33.197927	82.299954	-515.585797	32.924816	82.222827	-115.319935	
253	1.2650	493.501994	1283.815203	-134.801874	520.821414	1295.907560	-469.291448	509.560847	1312.438352	-308.409856	458.468182	1182.973383	-311.194412	540.635329	1030.925887	-49.321558	715.612456	897.816484	-116.078794	519.789456	1022.762423	-575.575517	704.680591	892.168009	-520.060578	1.119602	1107.140241	-328.828959	149.128811	1099.016944	-465.754896	128.067762	1115.936841	-186.884131	188.573680	1062.031695	-441.686763	181.155084	1085.346372	-209.439239	22.784404	1153.073421	-287.867554	32.755186	1170.405788	-370.792444	109.362025	1045.646856	-142.713849	84.341545	1006.157974	-500.633446	194.668255	1022.426862	-141.729774	281.580123	1012.537203	-149.236462	352.834293	970.027662	-127.068617	292.132679	1036.860723	-177.140380	474.149686	881.378335	-160.085120	463.440080	863.613725	-271.705109	450.861570	771.638656	-144.064303	421.887891	688.671410	-164.005439	363.267733	626.423647	-155.832309	431.684522	685.445086	-202.152275	289.541556	531.645193	-157.373136	294.877865	548.798752	-239.602564	215.981555	477.627870	-197.256109	501.673571	488.608640	-194.240394	394.862610	467.026188	-134.074271	420.045973	481.251718	-244.475705	184.197623	902.154903	-517.922650	248.378079	842.983608	-515.444060	276.320960	860.775899	-498.784007	272.534780	757.160033	-514.217358	322.577345	669.756599	-487.516310	323.213839	642.311891	-383.655700	281.456204	574.500256	-507.594195	260.615984	492.070773	-490.463104	199.465291	425.916054	-493.106675	278.580709	486.407146	-454.227380	135.369709	339.550550	-477.097038	152.977941	329.701039	-399.979099	59.491022	324.771704	-433.644991	292.902816	158.597251	-445.797956	189.557559	195.816940	-502.684720	-165.131566	858.049929	-315.509667	33.200917	82.295812	-515.582005	32.924281	82.224917	-115.309006	
254	1.2700	494.621794	1282.094293	-134.075586	523.057740	1293.490928	-468.084219	510.854093	1309.853190	-307.196681	459.144381	1180.862864	-310.242372	539.780864	1029.685628	-47.674623	715.485086	898.092081	-115.656126	518.562947	1021.029186	-576.572489	704.316929	892.121188	-520.820120	1.463960	1107.488309	-329.235950	149.780528	1098.769807	-465.866070	128.043223	1116.020537	-186.874808	188.922909	1061.773540	-441.624904	181.336539	1085.475915	-209.406500	23.258011	1153.627812	-288.330607	33.588999	1170.910932	-371.202821	109.306726	1045.890515	-142.919293	84.670980	1006.277676	-500.897135	194.662309	1022.594053	-141.956114	281.457081	1012.421393	-149.409068	352.727276	969.860777	-127.342895	292.171644	1036.796212	-177.383146	474.273783	880.636671	-161.075273	463.004008	863.155049	-271.852056	450.726826	771.012706	-144.282157	421.948929	688.053004	-164.123015	363.406741	625.690263	-156.007327	431.721114	684.782488	-202.262781	289.843712	530.666585	-157.686246	295.054036	547.817089	-239.731984	216.290302	476.562369	-197.308956	502.036199	488.322506	-194.133726	395.189543	466.534628	-134.050083	420.410553	480.837311	-244.392010	184.587382	902.270946	-517.979771	248.823406	843.176690	-515.514340	276.762288	860.984856	-498.890428	273.105646	757.408561	-514.233002	323.143526	670.125331	-487.278434	323.527965	642.765886	-383.484369	281.909412	574.946719	-507.411226	260.877915	492.526890	-490.286196	199.561543	426.445359	-492.991521	278.803249	486.864011	-454.111136	135.240500	340.222976	-477.148426	152.848981	330.269162	-399.996603	59.325030	325.478519	-433.648939	292.505203	158.735042	-445.792006	189.212219	196.192549	-502.703273	-165.100417	858.016248	-315.537836	33.206532	82.296120	-515.586270	32.932674	82.239491	-115.312467	
255	1.2750	495.774373	1280.417094	-133.318625	525.267678	1291.146956	-466.770506	512.437342	1307.638873	-306.264031	459.783617	1178.777240	-309.291215	538.482020	1028.285103	-45.996851	715.336387	898.239556	-115.249282	517.318757	1019.394558	-577.513413	703.928982	892.074210	-521.701706	1.817364	1107.902198	-329.698840	150.370880	1098.565509	-466.007692	128.075691	1116.100742	-186.874145	189.280045	1061.567319	-441.600749	181.542243	1085.607941	-209.339374	23.729057	1154.224282	-288.797861	34.470093	1171.348012	-371.503918	109.284318	1046.159219	-143.122278	84.987335	1006.344829	-501.138420	194.665007	1022.776676	-142.132180	281.345208	1012.464107	-149.579730	352.596975	969.720806	-127.521737	292.191539	1036.778915	-177.584825	474.139167	880.162239	-161.488322	462.679931	862.736776	-271.962372	450.609555	770.551733	-144.396896	422.005172	687.492758	-164.241473	363.605120	625.081340	-156.144307	431.782620	684.237048	-202.369552	290.005000	530.217036	-157.593470	295.249235	547.117686	-239.827899	216.658845	475.800602	-197.436316	502.440334	487.935173	-194.101134	395.563878	466.033160	-133.980564	420.853875	480.402764	-244.345049	185.031899	902.439950	-518.119980	249.316778	843.449262	-515.611498	277.195612	861.229018	-498.946772	273.665920	757.650541	-514.272730	323.647034	670.549230	-487.019397	323.827216	643.236057	-383.290789	282.352441	575.357036	-507.229788	261.164963	492.996529	-490.160471	199.704321	427.135988	-492.882758	279.021568	487.264513	-454.005680	135.119161	340.824275	-477.235491	152.749956	330.961511	-400.015403	59.229441	326.219657	-433.749876	292.006611	158.914433	-445.744876	188.851398	196.563619	-502.700591	-165.128910	857.986307	-315.630327	33.202062	82.302704	-515.573466	32.916876	82.232293	-115.297121	
